<mxfile host="app.diagrams.net" modified="2021-09-14T01:56:46.535Z" agent="5.0 (X11; Linux x86_64) AppleWebKit/537.36 (KHTML, like Gecko) Chrome/91.0.4472.77 Safari/537.36" etag="gjRr81L0bDSXzV30FS9E" version="14.9.8" type="github">
  <diagram id="ft4etm78n27xbqz4EmrA" name="Page-1">
    <mxGraphModel dx="1422" dy="766" grid="1" gridSize="10" guides="1" tooltips="1" connect="1" arrows="1" fold="1" page="1" pageScale="1" pageWidth="827" pageHeight="1169" math="0" shadow="0">
      <root>
        <mxCell id="0" />
        <mxCell id="1" parent="0" />
        <mxCell id="yJZCzkruBObAhsFaUWwP-1" value="Chip Manufacturing(CM)" style="rounded=1;whiteSpace=wrap;html=1;" vertex="1" parent="1">
          <mxGeometry x="390" y="200" width="170" height="60" as="geometry" />
        </mxCell>
        <mxCell id="yJZCzkruBObAhsFaUWwP-2" value="&lt;span style=&quot;color: rgb(0 , 0 , 0) ; font-family: &amp;#34;helvetica&amp;#34; ; font-size: 12px ; font-style: normal ; font-weight: 400 ; letter-spacing: normal ; text-align: center ; text-indent: 0px ; text-transform: none ; word-spacing: 0px ; background-color: rgb(248 , 249 , 250) ; display: inline ; float: none&quot;&gt;Device Manufacturing(DM)&lt;/span&gt;" style="rounded=1;whiteSpace=wrap;html=1;" vertex="1" parent="1">
          <mxGeometry x="390" y="290" width="170" height="60" as="geometry" />
        </mxCell>
        <mxCell id="yJZCzkruBObAhsFaUWwP-3" value="Secure Enable(SE)" style="rounded=1;whiteSpace=wrap;html=1;" vertex="1" parent="1">
          <mxGeometry x="390" y="380" width="170" height="60" as="geometry" />
        </mxCell>
        <mxCell id="yJZCzkruBObAhsFaUWwP-4" value="Return Merchandise Authorization(RMA)" style="rounded=1;whiteSpace=wrap;html=1;" vertex="1" parent="1">
          <mxGeometry x="200" y="200" width="120" height="240" as="geometry" />
        </mxCell>
        <mxCell id="yJZCzkruBObAhsFaUWwP-6" value="" style="endArrow=classic;html=1;exitX=0.5;exitY=1;exitDx=0;exitDy=0;" edge="1" parent="1" source="yJZCzkruBObAhsFaUWwP-1" target="yJZCzkruBObAhsFaUWwP-2">
          <mxGeometry width="50" height="50" relative="1" as="geometry">
            <mxPoint x="390" y="400" as="sourcePoint" />
            <mxPoint x="440" y="350" as="targetPoint" />
          </mxGeometry>
        </mxCell>
        <mxCell id="yJZCzkruBObAhsFaUWwP-7" value="" style="endArrow=classic;html=1;exitX=0.5;exitY=1;exitDx=0;exitDy=0;" edge="1" parent="1" source="yJZCzkruBObAhsFaUWwP-2" target="yJZCzkruBObAhsFaUWwP-3">
          <mxGeometry width="50" height="50" relative="1" as="geometry">
            <mxPoint x="390" y="400" as="sourcePoint" />
            <mxPoint x="440" y="350" as="targetPoint" />
          </mxGeometry>
        </mxCell>
        <mxCell id="yJZCzkruBObAhsFaUWwP-9" value="" style="endArrow=none;html=1;" edge="1" parent="1">
          <mxGeometry width="50" height="50" relative="1" as="geometry">
            <mxPoint x="360" y="480" as="sourcePoint" />
            <mxPoint x="360" y="160" as="targetPoint" />
          </mxGeometry>
        </mxCell>
        <mxCell id="yJZCzkruBObAhsFaUWwP-11" value="" style="endArrow=none;html=1;" edge="1" parent="1">
          <mxGeometry width="50" height="50" relative="1" as="geometry">
            <mxPoint x="360" y="360" as="sourcePoint" />
            <mxPoint x="610" y="360" as="targetPoint" />
          </mxGeometry>
        </mxCell>
        <mxCell id="yJZCzkruBObAhsFaUWwP-12" value="" style="endArrow=classic;html=1;exitX=0;exitY=0.5;exitDx=0;exitDy=0;entryX=1.017;entryY=0.125;entryDx=0;entryDy=0;entryPerimeter=0;dashed=1;" edge="1" parent="1" source="yJZCzkruBObAhsFaUWwP-1" target="yJZCzkruBObAhsFaUWwP-4">
          <mxGeometry width="50" height="50" relative="1" as="geometry">
            <mxPoint x="390" y="400" as="sourcePoint" />
            <mxPoint x="440" y="350" as="targetPoint" />
          </mxGeometry>
        </mxCell>
        <mxCell id="yJZCzkruBObAhsFaUWwP-13" value="" style="endArrow=classic;html=1;exitX=0;exitY=0.5;exitDx=0;exitDy=0;dashed=1;" edge="1" parent="1" source="yJZCzkruBObAhsFaUWwP-2">
          <mxGeometry width="50" height="50" relative="1" as="geometry">
            <mxPoint x="390" y="330" as="sourcePoint" />
            <mxPoint x="322" y="320" as="targetPoint" />
          </mxGeometry>
        </mxCell>
        <mxCell id="yJZCzkruBObAhsFaUWwP-14" value="" style="endArrow=classic;html=1;exitX=0;exitY=0.5;exitDx=0;exitDy=0;entryX=1.017;entryY=0.875;entryDx=0;entryDy=0;entryPerimeter=0;dashed=1;" edge="1" parent="1" source="yJZCzkruBObAhsFaUWwP-3" target="yJZCzkruBObAhsFaUWwP-4">
          <mxGeometry width="50" height="50" relative="1" as="geometry">
            <mxPoint x="410" y="250" as="sourcePoint" />
            <mxPoint x="342.03999999999996" y="250" as="targetPoint" />
          </mxGeometry>
        </mxCell>
      </root>
    </mxGraphModel>
  </diagram>
</mxfile>
